# xmcd
#
# Track frame offsets: 
#        150
#        14767
#        26831
#        42540
#        55059
#        74444
#        90194
#        105926
#        118466
#        130675
#        147305
#        159964
#
# Disc length: 2393 seconds
#
# Revision: 0
# Processed by: cddbd v1.5.2PL0 Copyright (c) Steve Scherf et al.
# Submitted via: ExactAudioCopy v1.0b3
#
DISCID=a209570c
DTITLE=Eddie Meduza - Raggare
DYEAR=1986
DGENRE=Rock
TTITLE0=Spiken i botten
TTITLE1=Raggare
TTITLE2=Min raggarbil
TTITLE3=Sup och rulla runt
TTITLE4=Full gas
TTITLE5=Heja U.S.A.
TTITLE6=Ja e en raggare
TTITLE7=Hejsan Bert!
TTITLE8=En räggöere e en räggöere
TTITLE9=Tommy hade en Cadillac
TTITLE10=De e gött å supa, pöjka!
TTITLE11=Ja e så fet, ja måste spy
EXTD=
EXTT0=
EXTT1=
EXTT2=
EXTT3=
EXTT4=
EXTT5=
EXTT6=
EXTT7=
EXTT8=
EXTT9=
EXTT10=
EXTT11=
PLAYORDER=
